<?xml version="1.0" encoding="utf-8"?>
<!-- Generator: Adobe Illustrator 16.0.0, SVG Export Plug-In . SVG Version: 6.00 Build 0)  -->
<svg version="1.2" baseProfile="tiny" id="Layer_1" xmlns="http://www.w3.org/2000/svg" xmlns:xlink="http://www.w3.org/1999/xlink"
	 x="0px" y="0px" width="800px" height="800px" viewBox="0 0 800 800" xml:space="preserve">
<g>
	<path fill-rule="evenodd" d="M364.517,506.372c7.98-26.442,15.903-52.902,23.956-79.323c10.816-35.483,21.623-70.97,32.789-106.343
		c1.041-3.299,4.07-6.835,7.131-8.478c11.375-6.103,23.146-11.459,36.557-17.962c-19.137,62.498-37.779,123.381-56.73,185.267
		c34.57,0,67.85,0,102.732,0c-11.729,9.663-22.148,18.252-32.57,26.839C440.426,506.372,402.471,506.372,364.517,506.372z"/>
	<path fill-rule="evenodd" d="M518.832,293.628c-14.273,46.605-28.547,93.209-43.166,140.941c53.605,0,105.848,0,158.088,0
		c0.166,0.483,0.334,0.966,0.498,1.45c-10.371,8.007-20.697,16.072-31.168,23.95c-1.236,0.931-3.24,1.184-4.889,1.185
		c-54.68,0.029-109.355-0.01-164.033-0.055c-0.482-0.002-0.961-0.228-2.217-0.546c2.168-7.337,4.271-14.671,6.508-21.965
		c11.898-38.83,23.91-77.625,35.656-116.501c1.559-5.157,4.02-8.388,9.061-10.764c11.592-5.462,22.799-11.745,34.164-17.696
		C517.832,293.628,518.332,293.628,518.832,293.628z"/>
	<path fill-rule="evenodd" d="M25.155,459.849c10.479-8.184,20.159-16.013,30.188-23.362c2.149-1.576,5.556-1.961,8.392-1.984
		c19.474-0.167,38.952-0.26,58.423-0.01c8.18,0.105,11.671-6.185,15.718-11.104c2.724-3.313-3.506-10.558-8.771-10.575
		c-18.475-0.062-36.963-0.393-55.423,0.158c-7.14,0.211-10.824-2.039-13.154-8.712c-2.706-7.74-6.268-15.203-9.807-22.621
		c-1.698-3.56-1.001-5.751,1.815-8.364c10.611-9.85,20.904-20.043,31.521-29.886c1.83-1.696,4.656-3.281,7.028-3.288
		c51.682-0.166,103.365-0.102,155.049-0.058c0.722,0,1.444,0.313,2.964,0.665c-3.507,11.453-6.987,22.798-10.454,34.147
		c-8.153,26.688-16.135,53.432-24.648,80.004c-1.121,3.499-4.355,7.21-7.612,8.972c-11.281,6.101-23.005,11.382-36.253,17.793
		c11.937-39.049,23.333-76.331,35.046-114.65c-3.314-0.169-5.672-0.393-8.031-0.395c-29.961-0.023-59.929,0.302-89.881-0.22
		c-8.314-0.145-12.07,5.312-16.343,10.084c-3.306,3.691,2.266,11.648,7.919,11.673c19.225,0.084,38.455,0.241,57.673-0.093
		c5.521-0.098,8.57,1.311,10.519,6.77c2.842,7.962,6.459,15.671,10.128,23.304c1.908,3.968,1.621,6.63-1.773,9.749
		c-10.659,9.795-20.912,20.032-31.534,29.87c-1.816,1.683-4.67,3.163-7.053,3.175c-36.452,0.188-72.905,0.114-109.358,0.073
		C27.038,460.964,26.631,460.583,25.155,459.849z"/>
	<path fill-rule="evenodd" d="M774.846,341.581c-10.037,7.785-19.969,15.717-30.207,23.228c-1.957,1.436-5.121,1.611-7.746,1.679
		c-7.982,0.207-15.994,0.401-23.957-0.041c-4.967-0.276-6.986,1.712-8.324,6.201c-6.332,21.248-13.078,42.372-19.316,63.646
		c-1.381,4.703-3.541,7.691-8.055,9.747c-11.549,5.258-22.887,10.979-36.109,17.391c10.049-32.955,19.635-64.393,29.537-96.868
		c-3.416,0-5.855,0-8.293,0c-33.449,0-66.898,0.132-100.348-0.127c-5.629-0.044-8.875,1.215-9.941,7.123
		c-0.83,4.583-2.482,9.016-4.025,14.412c33.645,0,66.436,0,99.225,0c0.254,0.556,0.506,1.111,0.758,1.667
		c-9.734,7.457-19.365,15.059-29.307,22.233c-1.746,1.262-4.783,0.986-7.227,0.995c-21.467,0.067-42.938,0.185-64.402-0.067
		c-4.98-0.059-7.846,1.051-9.113,6.283c-0.488,2.021-3.199,4.895-5.008,4.977c-10.42,0.478-20.873,0.232-32.133,0.232
		c7.385-24.24,14.475-47.553,21.596-70.856c4.125-13.502,4.15-13.495,18.484-13.495c75.139,0,150.273,0,225.41,0
		c2.689,0,5.377,0,8.066,0C774.553,340.486,774.699,341.034,774.846,341.581z"/>
	<path fill-rule="evenodd" d="M352.422,341.495c-18.484,13.79-36.969,27.579-56.184,41.915c8.114,12.335,15.759,24.517,24.025,36.26
		c3.55,5.045,4.154,9.576,2.057,15.231c-2.594,6.99-4.207,14.348-6.896,21.293c-0.81,2.092-3.729,4.649-5.793,4.752
		c-9.934,0.494-19.906,0.222-31.155,0.222c2.459-8.341,5.07-15.96,6.822-23.772c0.665-2.966,0.264-6.904-1.23-9.486
		c-4.592-7.94-9.948-15.439-15.524-23.895c-12.145,9.01-23.836,17.687-37.322,27.69c4.502-14.631,8.268-27.315,12.417-39.872
		c0.613-1.855,2.903-3.3,4.658-4.611c19.566-14.631,39.104-29.303,58.866-43.665c2.784-2.023,6.697-3.326,10.145-3.454
		c11.442-0.424,22.911-0.16,34.368-0.16C351.925,340.459,352.173,340.978,352.422,341.495z"/>
	<path fill-rule="evenodd" d="M322.333,481.672c10.19-33.32,19.784-64.703,29.388-96.084c4.008-13.097,8.255-26.126,11.946-39.311
		c1.402-5.01,3.813-6.677,8.936-6.45c9.186,0.406,18.403,0.114,28.357,0.114c-0.569,2.745-0.833,4.867-1.451,6.883
		c-11.09,36.189-22.114,72.4-33.53,108.487c-1.042,3.294-4.1,6.806-7.167,8.448C347.434,469.856,335.658,475.214,322.333,481.672z"
		/>
</g>
</svg>
